<?xml version="1.0" encoding="utf-8"?>
<!-- Generator: Adobe Illustrator 21.0.2, SVG Export Plug-In . SVG Version: 6.00 Build 0)  -->
<svg version="1.1" id="Layer_1" xmlns="http://www.w3.org/2000/svg" xmlns:xlink="http://www.w3.org/1999/xlink" x="0px" y="0px"
	 viewBox="0 0 1000 230" style="enable-background:new 0 0 1000 230;" xml:space="preserve">
<style type="text/css">
	.st0{fill:#4CD67D;}
	.st1{fill:#353535;}
</style>
<rect x="266.4" y="111" class="st0" width="63.1" height="7.8"/>
<rect x="258.6" y="126.7" class="st0" width="78.9" height="7.8"/>
<rect x="274.3" y="95.2" class="st0" width="47.3" height="7.8"/>
<polygon class="st0" points="250.3,142.5 250.3,150.3 282.4,150.3 282.4,158.7 313.6,158.7 313.6,150.3 345.7,150.3 345.7,142.5 "/>
<rect x="282" y="79.4" class="st0" width="31.9" height="7.8"/>
<rect x="290.1" y="63.3" class="st0" width="15.8" height="7.8"/>
<g>
	<path class="st1" d="M389.8,141.1h-6V94.8h-16.4v-5.3h38.8v5.3h-16.4V141.1z"/>
	<path class="st1" d="M420,119.6v21.5h-6V89.4h14.2c6.3,0,11,1.2,14.1,3.6c3,2.4,4.5,6.1,4.5,11c0,6.8-3.5,11.5-10.4,13.9l14,23.2
		h-7.1l-12.5-21.5H420z M420,114.5h8.2c4.2,0,7.4-0.8,9.3-2.5c2-1.7,3-4.2,3-7.6c0-3.4-1-5.9-3-7.4c-2-1.5-5.3-2.3-9.7-2.3H420
		V114.5z"/>
	<path class="st1" d="M487.6,141.1h-28.8V89.4h28.8v5.3h-22.8v16.7h21.4v5.3h-21.4v19h22.8V141.1z"/>
	<path class="st1" d="M527.8,141.1H499V89.4h28.8v5.3H505v16.7h21.4v5.3H505v19h22.8V141.1z"/>
	<path class="st1" d="M561.4,94.1c-5.7,0-10.2,1.9-13.5,5.7c-3.3,3.8-4.9,9-4.9,15.5c0,6.8,1.6,12,4.8,15.7
		c3.2,3.7,7.7,5.5,13.6,5.5c3.6,0,7.7-0.6,12.3-1.9v5.3c-3.6,1.3-8,2-13.3,2c-7.6,0-13.5-2.3-17.6-6.9c-4.1-4.6-6.2-11.2-6.2-19.7
		c0-5.3,1-10,3-14c2-4,4.9-7.1,8.6-9.3c3.8-2.2,8.2-3.3,13.3-3.3c5.4,0,10.2,1,14.2,3l-2.5,5.2C569.3,95,565.4,94.1,561.4,94.1z"/>
	<path class="st1" d="M617.5,141.1l-6.4-16.4h-20.7l-6.4,16.4h-6.1l20.4-51.9h5.1l20.3,51.9H617.5z M609.2,119.3l-6-16
		c-0.8-2-1.6-4.5-2.4-7.5c-0.5,2.3-1.3,4.8-2.2,7.5l-6.1,16H609.2z"/>
	<path class="st1" d="M660,127.4c0,4.5-1.7,8.1-5,10.6c-3.3,2.5-7.8,3.8-13.4,3.8c-6.1,0-10.8-0.8-14.1-2.4v-5.8
		c2.1,0.9,4.4,1.6,6.9,2.1s5,0.8,7.4,0.8c4,0,7-0.8,9.1-2.3c2-1.5,3-3.6,3-6.3c0-1.8-0.4-3.3-1.1-4.4c-0.7-1.1-1.9-2.2-3.6-3.2
		s-4.2-2.1-7.7-3.3c-4.8-1.7-8.2-3.8-10.3-6.1c-2.1-2.4-3.1-5.4-3.1-9.2c0-4,1.5-7.2,4.5-9.5c3-2.4,7-3.5,11.9-3.5
		c5.1,0,9.9,0.9,14.2,2.8l-1.9,5.2c-4.3-1.8-8.4-2.7-12.4-2.7c-3.2,0-5.7,0.7-7.5,2.1c-1.8,1.4-2.7,3.3-2.7,5.7c0,1.8,0.3,3.3,1,4.4
		c0.7,1.1,1.8,2.2,3.3,3.1c1.6,1,4,2,7.2,3.2c5.4,1.9,9.2,4,11.2,6.2S660,123.8,660,127.4z"/>
	<path class="st1" d="M686.5,141.1h-6V94.8h-16.4v-5.3h38.8v5.3h-16.4V141.1z"/>
</g>
</svg>
