<?xml version="1.0" encoding="utf-8"?>
<!-- Generator: Adobe Illustrator 21.0.2, SVG Export Plug-In . SVG Version: 6.00 Build 0)  -->
<svg version="1.1" id="Layer_1" xmlns="http://www.w3.org/2000/svg" xmlns:xlink="http://www.w3.org/1999/xlink" x="0px" y="0px"
	 viewBox="0 0 1000 230" style="enable-background:new 0 0 1000 230;" xml:space="preserve">
<style type="text/css">
	.st0{fill:#4CD67D;}
	.st1{fill:#FFFFFF;}
</style>
<rect x="35.2" y="118" class="st0" width="137.5" height="17"/>
<rect x="18" y="152.3" class="st0" width="171.8" height="17"/>
<rect x="52.4" y="83.7" class="st0" width="103.1" height="17"/>
<polygon class="st0" points="0,186.6 0,203.6 70,203.6 70,222 137.9,222 137.9,203.6 207.9,203.6 207.9,186.6 "/>
<rect x="69.2" y="49.3" class="st0" width="69.6" height="17"/>
<rect x="86.7" y="14.1" class="st0" width="34.4" height="17"/>
<g>
	<path class="st1" d="M316.9,183.7h-13.1v-101h-35.7V71.1h84.4v11.6h-35.7V183.7z"/>
	<path class="st1" d="M382.6,136.9v46.8h-13.1V71.1h30.9c13.8,0,24,2.6,30.6,7.9c6.6,5.3,9.9,13.2,9.9,23.9c0,14.9-7.5,25-22.6,30.2
		l30.6,50.6h-15.5l-27.3-46.8H382.6z M382.6,125.6h17.9c9.2,0,16-1.8,20.3-5.5c4.3-3.7,6.5-9.2,6.5-16.5c0-7.4-2.2-12.8-6.6-16.1
		c-4.4-3.3-11.4-4.9-21.1-4.9h-17V125.6z"/>
	<path class="st1" d="M529.8,183.7H467V71.1h62.8v11.6h-49.7V119h46.7v11.6h-46.7V172h49.7V183.7z"/>
	<path class="st1" d="M617.6,183.7h-62.8V71.1h62.8v11.6h-49.7V119h46.7v11.6h-46.7V172h49.7V183.7z"/>
	<path class="st1" d="M690.7,81.2c-12.4,0-22.1,4.1-29.3,12.4c-7.2,8.2-10.7,19.5-10.7,33.9c0,14.7,3.5,26.1,10.4,34.2
		c6.9,8,16.8,12.1,29.5,12.1c7.9,0,16.8-1.4,26.9-4.2v11.5c-7.8,2.9-17.4,4.4-28.9,4.4c-16.6,0-29.4-5-38.4-15.1
		c-9-10.1-13.5-24.4-13.5-42.9c0-11.6,2.2-21.8,6.5-30.5c4.3-8.7,10.6-15.5,18.8-20.2c8.2-4.7,17.8-7.1,28.9-7.1
		c11.8,0,22.1,2.2,31,6.5l-5.5,11.2C707.8,83.2,699.2,81.2,690.7,81.2z"/>
	<path class="st1" d="M812.8,183.7l-14-35.8h-45.1l-13.9,35.8h-13.2l44.5-113.1h11l44.3,113.1H812.8z M794.7,136.1l-13.1-34.9
		c-1.7-4.4-3.4-9.8-5.2-16.3c-1.1,4.9-2.7,10.3-4.9,16.3l-13.2,34.9H794.7z"/>
	<path class="st1" d="M905.4,153.8c0,9.9-3.6,17.6-10.8,23.2c-7.2,5.5-16.9,8.3-29.3,8.3c-13.4,0-23.6-1.7-30.8-5.2v-12.6
		c4.6,2,9.7,3.5,15.1,4.6c5.4,1.1,10.8,1.7,16.2,1.7c8.7,0,15.3-1.7,19.7-5c4.4-3.3,6.6-7.9,6.6-13.8c0-3.9-0.8-7.1-2.4-9.6
		c-1.6-2.5-4.2-4.8-7.9-6.9c-3.7-2.1-9.3-4.5-16.8-7.2c-10.5-3.7-18-8.2-22.5-13.3c-4.5-5.1-6.7-11.8-6.7-20.1
		c0-8.7,3.3-15.6,9.8-20.7c6.5-5.1,15.1-7.7,25.9-7.7c11.2,0,21.5,2.1,30.9,6.2L898.5,87c-9.3-3.9-18.3-5.9-27.1-5.9
		c-6.9,0-12.4,1.5-16.3,4.5c-3.9,3-5.9,7.1-5.9,12.4c0,3.9,0.7,7.1,2.2,9.6c1.4,2.5,3.9,4.8,7.3,6.9c3.4,2.1,8.6,4.4,15.7,6.9
		c11.8,4.2,19.9,8.7,24.4,13.6C903.2,139.8,905.4,146,905.4,153.8z"/>
	<path class="st1" d="M963.1,183.7H950v-101h-35.7V71.1h84.4v11.6h-35.7V183.7z"/>
</g>
</svg>
